<svg id="Capa_1" enable-background="new 0 0 512 512" height="512" viewBox="0 0 512 512" width="512" xmlns="http://www.w3.org/2000/svg"><g><g><path d="m50.5 404.5v-30h-38c-2.761 0-5 2.239-5 5v20c0 2.761 2.239 5 5 5z" fill="#b4d2d7"/><path d="m50.5 315.5v-30h-38c-2.761 0-5 2.239-5 5v20c0 2.761 2.239 5 5 5z" fill="#b4d2d7"/><path d="m50.5 226.5v-30h-38c-2.761 0-5 2.239-5 5v20c0 2.761 2.239 5 5 5z" fill="#b4d2d7"/><path d="m50.5 137.5v-30h-38c-2.761 0-5 2.239-5 5v20c0 2.761 2.239 5 5 5z" fill="#b4d2d7"/><path d="m404.501 461.5h-30v38c0 2.761 2.239 5 5 5h20c2.761 0 5-2.239 5-5z" fill="#b4d2d7"/><path d="m315.501 461.5h-30v38c0 2.761 2.239 5 5 5h20c2.761 0 5-2.239 5-5z" fill="#b4d2d7"/><path d="m226.501 461.5h-30v38c0 2.761 2.239 5 5 5h20c2.761 0 5-2.239 5-5z" fill="#b4d2d7"/><path d="m137.501 461.5h-30v38c0 2.761 2.239 5 5 5h20c2.761 0 5-2.239 5-5z" fill="#b4d2d7"/><path d="m22.5 374.5h28v30h-28z" fill="#9bb9c3"/><path d="m22.5 285.5h28v30h-28z" fill="#9bb9c3"/><path d="m22.5 196.5h28v30h-28z" fill="#9bb9c3"/><path d="m22.5 107.5h28v30h-28z" fill="#9bb9c3"/><path d="m374.5 461.5h30v28h-30z" fill="#9bb9c3"/><path d="m285.5 461.5h30v28h-30z" fill="#9bb9c3"/><path d="m196.5 461.5h30v28h-30z" fill="#9bb9c3"/><path d="m107.5 461.5h30v28h-30z" fill="#9bb9c3"/><path d="m461.5 107.499v30h38c2.761 0 5-2.239 5-5v-20c0-2.761-2.239-5-5-5z" fill="#b4d2d7"/><path d="m461.5 196.499v30h38c2.761 0 5-2.239 5-5v-20c0-2.761-2.239-5-5-5z" fill="#b4d2d7"/><path d="m461.5 285.499v30h38c2.761 0 5-2.239 5-5v-20c0-2.761-2.239-5-5-5z" fill="#b4d2d7"/><path d="m461.5 374.499v30h38c2.761 0 5-2.239 5-5v-20c0-2.761-2.239-5-5-5z" fill="#b4d2d7"/><path d="m461.5 107.5h28v30h-28z" fill="#9bb9c3"/><path d="m461.5 196.5h28v30h-28z" fill="#9bb9c3"/><path d="m461.5 374.5h28v30h-28z" fill="#9bb9c3"/><path d="m461.5 285.5h28v30h-28z" fill="#9bb9c3"/><path d="m107.5 44.83h30v-32.33c0-2.761-2.239-5-5-5h-20c-2.761 0-5 2.239-5 5z" fill="#b4d2d7"/><path d="m196.5 44.83h30v-32.33c0-2.761-2.239-5-5-5h-20c-2.761 0-5 2.239-5 5z" fill="#b4d2d7"/><path d="m285.5 44.83h30v-32.33c0-2.761-2.239-5-5-5h-20c-2.761 0-5 2.239-5 5z" fill="#b4d2d7"/><path d="m374.5 44.83h30v-32.33c0-2.761-2.239-5-5-5h-20c-2.761 0-5 2.239-5 5z" fill="#b4d2d7"/><path d="m107.5 22.5h30v22.33h-30z" fill="#9bb9c3"/><path d="m196.5 22.5h30v22.33h-30z" fill="#9bb9c3"/><path d="m285.5 22.5h30v22.33h-30z" fill="#9bb9c3"/><path d="m374.5 22.5h30v22.33h-30z" fill="#9bb9c3"/><g fill="#b4d2d7"><path d="m84.787 419.5v-60h-39.287c-5.523 0-10 4.477-10 10v40c0 5.523 4.477 10 10 10z"/><path d="m84.787 330.5v-60h-39.287c-5.523 0-10 4.477-10 10v40c0 5.523 4.477 10 10 10z"/><path d="m84.787 241.5v-60h-39.287c-5.523 0-10 4.477-10 10v40c0 5.523 4.477 10 10 10z"/><path d="m84.787 152.5v-60h-39.287c-5.523 0-10 4.477-10 10v40c0 5.523 4.477 10 10 10z"/><path d="m419.501 430.362h-60v36.138c0 5.523 4.477 10 10 10h40c5.523 0 10-4.477 10-10z"/><path d="m330.501 430.362h-60v36.138c0 5.523 4.477 10 10 10h40c5.523 0 10-4.477 10-10z"/><path d="m241.501 430.362h-60v36.138c0 5.523 4.477 10 10 10h40c5.523 0 10-4.477 10-10z"/><path d="m152.501 430.362h-60v36.138c0 5.523 4.477 10 10 10h40c5.523 0 10-4.477 10-10z"/><path d="m427.936 270.499v60h38.563c5.523 0 10-4.477 10-10v-40c0-5.523-4.477-10-10-10z"/><path d="m92.5 76.489h60v-30.989c0-5.523-4.477-10-10-10h-40c-5.523 0-10 4.477-10 10z"/><path d="m181.5 76.489h60v-30.989c0-5.523-4.477-10-10-10h-40c-5.523 0-10 4.477-10 10z"/><path d="m270.5 76.489h60v-30.989c0-5.523-4.477-10-10-10h-40c-5.523 0-10 4.477-10 10z"/><path d="m359.5 76.489h60v-30.989c0-5.523-4.477-10-10-10h-40c-5.523 0-10 4.477-10 10z"/><path d="m427.936 92.499v60h38.563c5.523 0 10-4.477 10-10v-40c0-5.523-4.477-10-10-10z"/><path d="m427.936 181.499v60h38.563c5.523 0 10-4.477 10-10v-40c0-5.523-4.477-10-10-10z"/><path d="m427.936 359.499v60h38.563c5.523 0 10-4.477 10-10v-40c0-5.523-4.477-10-10-10z"/><path d="m427.936 270.499v60h38.563c5.523 0 10-4.477 10-10v-40c0-5.523-4.477-10-10-10z"/></g><path d="m461.5 419.5v-60" fill="#9bb9c3"/><path d="m92.5 50.5h60v25.99h-60z" fill="#9bb9c3"/><path d="m181.5 50.5h60v25.99h-60z" fill="#9bb9c3"/><path d="m270.5 50.5h60v25.99h-60z" fill="#9bb9c3"/><path d="m359.5 50.5h60v25.99h-60z" fill="#9bb9c3"/><path d="m427.94 92.5h33.56v60h-33.56z" fill="#9bb9c3"/><path d="m359.5 430.36h60v31.14h-60z" fill="#9bb9c3"/><path d="m270.5 430.36h60v31.14h-60z" fill="#9bb9c3"/><path d="m181.5 430.36h60v31.14h-60z" fill="#9bb9c3"/><path d="m92.5 430.36h60v31.14h-60z" fill="#9bb9c3"/><path d="m50.5 359.5h34.29v60h-34.29z" fill="#9bb9c3"/><path d="m50.5 270.5h34.29v60h-34.29z" fill="#9bb9c3"/><path d="m50.5 181.5h34.29v60h-34.29z" fill="#9bb9c3"/><path d="m50.5 92.5h34.29v60h-34.29z" fill="#9bb9c3"/><path d="m427.94 181.5h33.56v60h-33.56z" fill="#9bb9c3"/><path d="m427.94 270.5h33.56v60h-33.56z" fill="#9bb9c3"/><path d="m427.94 359.5h33.56v60h-33.56z" fill="#9bb9c3"/><path d="m90.5 65.5h331c13.807 0 25 11.193 25 25v331c0 13.807-11.193 25-25 25h-331c-13.807 0-25-11.193-25-25v-331c0-13.807 11.193-25 25-25z" fill="#b3e59f"/><path d="m110.5 446.5h-20c-13.81 0-25-11.19-25-25v-331c0-13.81 11.19-25 25-25h20c-13.81 0-25 11.19-25 25v331c0 13.81 11.19 25 25 25z" fill="#95d6a4"/><path d="m396.5 125.5v180.858c0 2.652-1.054 5.196-2.929 7.071l-80.142 80.142c-1.875 1.875-4.419 2.929-7.071 2.929h-180.858c-5.523 0-10-4.477-10-10v-261c0-5.523 4.477-10 10-10h261c5.523 0 10 4.477 10 10z" fill="#e6f7fe"/><path d="m146 396.5h-20.5c-5.52 0-10-4.48-10-10v-261c0-5.52 4.48-10 10-10h20.5c-5.52 0-10 4.48-10 10v261c0 5.52 4.48 10 10 10z" fill="#d3effd"/><circle cx="170.5" cy="170.5" fill="#ffd064" r="20"/><path d="m189.99 174.99c-2.03 8.89-9.99 15.51-19.49 15.51-11.05 0-20-8.95-20-20 0-9.5 6.62-17.46 15.51-19.49-.33 1.44-.51 2.95-.51 4.49 0 11.05 8.95 20 20 20 1.54 0 3.05-.18 4.49-.51z" fill="#ffc250"/><g><path d="m305.5 283h-100c-4.142 0-7.5-3.357-7.5-7.5s3.358-7.5 7.5-7.5h100c4.142 0 7.5 3.357 7.5 7.5s-3.358 7.5-7.5 7.5z" fill="#b4d2d7"/></g></g><g><path d="m333.322 363.07-25.197 25.197c-.472.473-1.1.732-1.768.732h-180.857c-1.378 0-2.5-1.121-2.5-2.5v-261c0-1.379 1.122-2.5 2.5-2.5h25c4.142 0 7.5-3.357 7.5-7.5s-3.358-7.5-7.5-7.5h-25c-9.649 0-17.5 7.851-17.5 17.5v261c0 9.649 7.851 17.5 17.5 17.5h180.858c4.674 0 9.069-1.82 12.374-5.125l25.197-25.197c2.929-2.93 2.929-7.678 0-10.607-2.929-2.927-7.678-2.927-10.607 0z"/><path d="m386.5 108h-200.5c-4.142 0-7.5 3.357-7.5 7.5s3.358 7.5 7.5 7.5h200.5c1.378 0 2.5 1.121 2.5 2.5v180.857c0 .658-.267 1.303-.732 1.768l-30.197 30.197c-2.929 2.93-2.929 7.678 0 10.607 2.929 2.928 7.678 2.928 10.606 0l30.197-30.197c3.305-3.306 5.125-7.7 5.125-12.375v-180.857c.001-9.649-7.85-17.5-17.499-17.5z"/><path d="m466.5 160c8.798 0 16.081-6.534 17.3-15h15.7c6.893 0 12.5-5.607 12.5-12.5v-20c0-6.893-5.607-12.5-12.5-12.5h-15.7c-1.22-8.466-8.502-15-17.3-15h-12.975c-2.315-13.52-13.005-24.21-26.525-26.525v-12.975c0-8.798-6.534-16.081-15-17.3v-15.7c0-6.893-5.607-12.5-12.5-12.5h-20c-6.893 0-12.5 5.607-12.5 12.5v15.7c-8.466 1.22-15 8.502-15 17.3v12.5h-14v-12.5c0-8.798-6.534-16.081-15-17.3v-15.7c0-6.893-5.607-12.5-12.5-12.5h-20c-6.893 0-12.5 5.607-12.5 12.5v15.7c-8.466 1.22-15 8.502-15 17.3v12.5h-14v-12.5c0-8.798-6.534-16.081-15-17.3v-15.7c0-6.893-5.607-12.5-12.5-12.5h-20c-6.893 0-12.5 5.607-12.5 12.5v15.7c-8.466 1.22-15 8.502-15 17.3v12.5h-14v-12.5c0-8.798-6.534-16.081-15-17.3v-15.7c0-6.893-5.607-12.5-12.5-12.5h-20c-6.893 0-12.5 5.607-12.5 12.5v15.7c-8.466 1.22-15 8.502-15 17.3v12.975c-13.52 2.315-24.21 13.005-26.525 26.525h-12.975c-8.798 0-16.081 6.534-17.3 15h-15.7c-6.893 0-12.5 5.607-12.5 12.5v20c0 6.893 5.607 12.5 12.5 12.5h15.7c1.22 8.466 8.502 15 17.3 15h12.5v14h-12.5c-8.798 0-16.081 6.534-17.3 15h-15.7c-6.893 0-12.5 5.607-12.5 12.5v20c0 6.893 5.607 12.5 12.5 12.5h15.7c1.22 8.466 8.502 15 17.3 15h12.5v14h-12.5c-8.798 0-16.081 6.534-17.3 15h-15.7c-6.893 0-12.5 5.607-12.5 12.5v20c0 6.893 5.607 12.5 12.5 12.5h15.7c1.22 8.466 8.502 15 17.3 15h12.5v14h-12.5c-8.798 0-16.081 6.534-17.3 15h-15.7c-6.893 0-12.5 5.607-12.5 12.5v20c0 6.893 5.607 12.5 12.5 12.5h15.7c1.22 8.466 8.502 15 17.3 15h12.975c2.315 13.52 13.005 24.21 26.525 26.525v12.975c0 8.798 6.534 16.081 15 17.3v15.7c0 6.893 5.607 12.5 12.5 12.5h20c6.893 0 12.5-5.607 12.5-12.5v-15.7c8.466-1.22 15-8.502 15-17.3v-12.5h14v12.5c0 8.798 6.534 16.081 15 17.3v15.7c0 6.893 5.607 12.5 12.5 12.5h20c6.893 0 12.5-5.607 12.5-12.5v-15.7c8.466-1.22 15-8.502 15-17.3v-12.5h14v12.5c0 8.798 6.534 16.081 15 17.3v15.7c0 6.893 5.607 12.5 12.5 12.5h20c6.893 0 12.5-5.607 12.5-12.5v-15.7c8.466-1.22 15-8.502 15-17.3v-12.5h14v12.5c0 8.798 6.534 16.081 15 17.3v15.7c0 6.893 5.607 12.5 12.5 12.5h20c6.893 0 12.5-5.607 12.5-12.5v-15.7c8.466-1.22 15-8.502 15-17.3v-12.975c13.52-2.315 24.21-13.005 26.525-26.525h12.975c8.798 0 16.081-6.534 17.3-15h15.7c6.893 0 12.5-5.607 12.5-12.5v-20c0-6.893-5.607-12.5-12.5-12.5h-15.7c-1.22-8.466-8.502-15-17.3-15h-12.5v-14h12.5c8.798 0 16.081-6.534 17.3-15h15.7c6.893 0 12.5-5.607 12.5-12.5v-20c0-6.893-5.607-12.5-12.5-12.5h-15.7c-1.22-8.466-8.502-15-17.3-15h-12.5v-14h12.5c8.798 0 16.081-6.534 17.3-15h15.7c6.893 0 12.5-5.607 12.5-12.5v-20c0-6.893-5.607-12.5-12.5-12.5h-15.7c-1.22-8.466-8.502-15-17.3-15h-12.5v-14zm30.5-30h-13v-15h13zm-28-27.5v40c0 1.379-1.122 2.5-2.5 2.5h-12.5v-45h12.5c1.378 0 2.5 1.121 2.5 2.5zm-87-87.5h15v13h-15zm-15 30.5c0-1.379 1.122-2.5 2.5-2.5h40c1.378 0 2.5 1.121 2.5 2.5v12.5h-45zm-74-30.5h15v13h-15zm-15 30.5c0-1.379 1.122-2.5 2.5-2.5h40c1.378 0 2.5 1.121 2.5 2.5v12.5h-45zm-74-30.5h15v13h-15zm-15 30.5c0-1.379 1.122-2.5 2.5-2.5h40c1.378 0 2.5 1.121 2.5 2.5v12.5h-45zm-74-30.5h15v13h-15zm-12.5 28h40c1.378 0 2.5 1.121 2.5 2.5v12.5h-45v-12.5c0-1.379 1.122-2.5 2.5-2.5zm-87.5 72h13v15h-13zm30.5 30c-1.378 0-2.5-1.121-2.5-2.5 0-7.061 0-32.937 0-40 0-1.379 1.122-2.5 2.5-2.5h12.5v45zm-30.5 59h13v15h-13zm30.5 30c-1.378 0-2.5-1.121-2.5-2.5 0-7.061 0-32.937 0-40 0-1.379 1.122-2.5 2.5-2.5h12.5v45zm-30.5 59h13v15h-13zm30.5 30c-1.378 0-2.5-1.121-2.5-2.5 0-7.061 0-32.937 0-40 0-1.379 1.122-2.5 2.5-2.5h12.5v45zm-30.5 59h13v15h-13zm28 27.5c0-7.061 0-32.937 0-40 0-1.379 1.122-2.5 2.5-2.5h12.5v45h-12.5c-1.378 0-2.5-1.121-2.5-2.5zm87 87.5h-15v-13h15zm15-30.5c0 1.379-1.122 2.5-2.5 2.5-7.061 0-32.937 0-40 0-1.378 0-2.5-1.121-2.5-2.5v-12.5h45zm74 30.5h-15v-13h15zm15-30.5c0 1.379-1.122 2.5-2.5 2.5-7.061 0-32.937 0-40 0-1.378 0-2.5-1.121-2.5-2.5v-12.5h45zm74 30.5h-15v-13h15zm15-30.5c0 1.379-1.122 2.5-2.5 2.5-7.061 0-32.937 0-40 0-1.378 0-2.5-1.121-2.5-2.5v-12.5h45zm74 30.5h-15v-13h15zm12.5-28c-7.061 0-32.937 0-40 0-1.378 0-2.5-1.121-2.5-2.5v-12.5h45v12.5c0 1.379-1.122 2.5-2.5 2.5zm29.5-47.5c0 9.649-7.851 17.5-17.5 17.5h-331c-9.649 0-17.5-7.851-17.5-17.5v-331c0-9.649 7.851-17.5 17.5-17.5h331c9.649 0 17.5 7.851 17.5 17.5zm58-24.5h-13v-15h13zm-30.5-30c1.378 0 2.5 1.121 2.5 2.5v40c0 1.379-1.122 2.5-2.5 2.5h-12.5v-45zm30.5-59h-13v-15h13zm-30.5-30c1.378 0 2.5 1.121 2.5 2.5v40c0 1.379-1.122 2.5-2.5 2.5h-12.5v-45zm30.5-59h-13v-15h13zm-30.5-30c1.378 0 2.5 1.121 2.5 2.5v40c0 1.379-1.122 2.5-2.5 2.5h-12.5v-45z"/><path d="m170.5 143c-15.164 0-27.5 12.337-27.5 27.5s12.336 27.5 27.5 27.5 27.5-12.337 27.5-27.5-12.336-27.5-27.5-27.5zm0 40c-6.893 0-12.5-5.607-12.5-12.5s5.607-12.5 12.5-12.5 12.5 5.607 12.5 12.5-5.607 12.5-12.5 12.5z"/><path d="m198 275.5c0 4.143 3.358 7.5 7.5 7.5h100c4.142 0 7.5-3.357 7.5-7.5s-3.358-7.5-7.5-7.5h-100c-4.142 0-7.5 3.357-7.5 7.5z"/><path d="m255.5 228h-85c-4.142 0-7.5 3.357-7.5 7.5s3.358 7.5 7.5 7.5h85c4.142 0 7.5-3.357 7.5-7.5s-3.358-7.5-7.5-7.5z"/><path d="m340.5 228h-49.5c-4.142 0-7.5 3.357-7.5 7.5s3.358 7.5 7.5 7.5h49.5c4.142 0 7.5-3.357 7.5-7.5s-3.358-7.5-7.5-7.5z"/></g></g></svg>